<?xml version="1.0" encoding="UTF-8" standalone="no"?><svg xmlns="http://www.w3.org/2000/svg" xmlns:xlink="http://www.w3.org/1999/xlink" contentScriptType="application/ecmascript" contentStyleType="text/css" height="1156px" preserveAspectRatio="none" style="width:779px;height:1156px;background:#FFFFFF;" version="1.1" viewBox="0 0 779 1156" width="779px" zoomAndPan="magnify"><defs><filter height="300%" id="fadljrxzxzd82" width="300%" x="-1" y="-1"><feGaussianBlur result="blurOut" stdDeviation="2.0"/><feColorMatrix in="blurOut" result="blurOut2" type="matrix" values="0 0 0 0 0 0 0 0 0 0 0 0 0 0 0 0 0 0 .4 0"/><feOffset dx="4.0" dy="4.0" in="blurOut2" result="blurOut3"/><feBlend in="SourceGraphic" in2="blurOut3" mode="normal"/></filter></defs><g><text fill="#000000" font-family="sans-serif" font-size="18" lengthAdjust="spacing" textLength="258" x="258.75" y="28.708">Change Branded Prescription</text><rect fill="#FFFFFF" filter="url(#fadljrxzxzd82)" height="149.9297" style="stroke:#000000;stroke-width:2.0;" width="422.5" x="10" y="140.25"/><rect fill="#FFFFFF" filter="url(#fadljrxzxzd82)" height="188.9297" style="stroke:#000000;stroke-width:2.0;" width="282" x="360.5" y="304.1797"/><rect fill="#FFFFFF" filter="url(#fadljrxzxzd82)" height="105.6641" style="stroke:#000000;stroke-width:2.0;" width="328" x="360.5" y="507.1094"/><rect fill="#FFFFFF" filter="url(#fadljrxzxzd82)" height="74.3984" style="stroke:#000000;stroke-width:2.0;" width="266" x="360.5" y="626.7734"/><rect fill="#FFFFFF" filter="url(#fadljrxzxzd82)" height="162.9297" style="stroke:#000000;stroke-width:2.0;" width="405" x="360.5" y="715.1719"/><rect fill="#FFFFFF" filter="url(#fadljrxzxzd82)" height="162.9297" style="stroke:#000000;stroke-width:2.0;" width="543.5" x="10" y="892.1016"/><line style="stroke:#A80036;stroke-width:1.0;stroke-dasharray:5.0,5.0;" x1="57" x2="57" y1="123.25" y2="1072.0313"/><line style="stroke:#A80036;stroke-width:1.0;stroke-dasharray:5.0,5.0;" x1="217" x2="217" y1="123.25" y2="1072.0313"/><line style="stroke:#A80036;stroke-width:1.0;stroke-dasharray:5.0,5.0;" x1="396.5" x2="396.5" y1="123.25" y2="1072.0313"/><line style="stroke:#A80036;stroke-width:1.0;stroke-dasharray:5.0,5.0;" x1="637.5" x2="637.5" y1="123.25" y2="1072.0313"/><line style="stroke:#A80036;stroke-width:1.0;stroke-dasharray:5.0,5.0;" x1="721.5" x2="721.5" y1="123.25" y2="1072.0313"/><text fill="#000000" font-family="sans-serif" font-size="14" lengthAdjust="spacing" textLength="69" x="20" y="119.9482">Pia Peters</text><ellipse cx="57.5" cy="49.9531" fill="#FEFECE" filter="url(#fadljrxzxzd82)" rx="8" ry="8" style="stroke:#A80036;stroke-width:2.0;"/><path d="M57.5,57.9531 L57.5,84.9531 M44.5,65.9531 L70.5,65.9531 M57.5,84.9531 L44.5,99.9531 M57.5,84.9531 L70.5,99.9531 " fill="none" filter="url(#fadljrxzxzd82)" style="stroke:#A80036;stroke-width:2.0;"/><text fill="#000000" font-family="sans-serif" font-size="14" lengthAdjust="spacing" textLength="69" x="20" y="1084.0264">Pia Peters</text><ellipse cx="57.5" cy="1097.3281" fill="#FEFECE" filter="url(#fadljrxzxzd82)" rx="8" ry="8" style="stroke:#A80036;stroke-width:2.0;"/><path d="M57.5,1105.3281 L57.5,1132.3281 M44.5,1113.3281 L70.5,1113.3281 M57.5,1132.3281 L44.5,1147.3281 M57.5,1132.3281 L70.5,1147.3281 " fill="none" filter="url(#fadljrxzxzd82)" style="stroke:#A80036;stroke-width:2.0;"/><text fill="#000000" font-family="sans-serif" font-size="14" lengthAdjust="spacing" textLength="71" x="179" y="119.9482">Dr. Durant</text><ellipse cx="217.5" cy="49.9531" fill="#FEFECE" filter="url(#fadljrxzxzd82)" rx="8" ry="8" style="stroke:#A80036;stroke-width:2.0;"/><path d="M217.5,57.9531 L217.5,84.9531 M204.5,65.9531 L230.5,65.9531 M217.5,84.9531 L204.5,99.9531 M217.5,84.9531 L230.5,99.9531 " fill="none" filter="url(#fadljrxzxzd82)" style="stroke:#A80036;stroke-width:2.0;"/><text fill="#000000" font-family="sans-serif" font-size="14" lengthAdjust="spacing" textLength="71" x="179" y="1084.0264">Dr. Durant</text><ellipse cx="217.5" cy="1097.3281" fill="#FEFECE" filter="url(#fadljrxzxzd82)" rx="8" ry="8" style="stroke:#A80036;stroke-width:2.0;"/><path d="M217.5,1105.3281 L217.5,1132.3281 M204.5,1113.3281 L230.5,1113.3281 M217.5,1132.3281 L204.5,1147.3281 M217.5,1132.3281 L230.5,1147.3281 " fill="none" filter="url(#fadljrxzxzd82)" style="stroke:#A80036;stroke-width:2.0;"/><rect fill="#FEFECE" filter="url(#fadljrxzxzd82)" height="30.2969" style="stroke:#A80036;stroke-width:1.5;" width="48" x="370.5" y="87.9531"/><text fill="#000000" font-family="sans-serif" font-size="14" lengthAdjust="spacing" textLength="34" x="377.5" y="107.9482">Vault</text><rect fill="#FEFECE" filter="url(#fadljrxzxzd82)" height="30.2969" style="stroke:#A80036;stroke-width:1.5;" width="48" x="370.5" y="1071.0313"/><text fill="#000000" font-family="sans-serif" font-size="14" lengthAdjust="spacing" textLength="34" x="377.5" y="1091.0264">Vault</text><text fill="#000000" font-family="sans-serif" font-size="14" lengthAdjust="spacing" textLength="76" x="596.5" y="119.9482">Pharmacist</text><ellipse cx="637.5" cy="49.9531" fill="#FEFECE" filter="url(#fadljrxzxzd82)" rx="8" ry="8" style="stroke:#A80036;stroke-width:2.0;"/><path d="M637.5,57.9531 L637.5,84.9531 M624.5,65.9531 L650.5,65.9531 M637.5,84.9531 L624.5,99.9531 M637.5,84.9531 L650.5,99.9531 " fill="none" filter="url(#fadljrxzxzd82)" style="stroke:#A80036;stroke-width:2.0;"/><text fill="#000000" font-family="sans-serif" font-size="14" lengthAdjust="spacing" textLength="76" x="596.5" y="1084.0264">Pharmacist</text><ellipse cx="637.5" cy="1097.3281" fill="#FEFECE" filter="url(#fadljrxzxzd82)" rx="8" ry="8" style="stroke:#A80036;stroke-width:2.0;"/><path d="M637.5,1105.3281 L637.5,1132.3281 M624.5,1113.3281 L650.5,1113.3281 M637.5,1132.3281 L624.5,1147.3281 M637.5,1132.3281 L650.5,1147.3281 " fill="none" filter="url(#fadljrxzxzd82)" style="stroke:#A80036;stroke-width:2.0;"/><text fill="#000000" font-family="sans-serif" font-size="14" lengthAdjust="spacing" textLength="61" x="688.5" y="119.9482">Dr. Omar</text><ellipse cx="722" cy="49.9531" fill="#FEFECE" filter="url(#fadljrxzxzd82)" rx="8" ry="8" style="stroke:#A80036;stroke-width:2.0;"/><path d="M722,57.9531 L722,84.9531 M709,65.9531 L735,65.9531 M722,84.9531 L709,99.9531 M722,84.9531 L735,99.9531 " fill="none" filter="url(#fadljrxzxzd82)" style="stroke:#A80036;stroke-width:2.0;"/><text fill="#000000" font-family="sans-serif" font-size="14" lengthAdjust="spacing" textLength="61" x="688.5" y="1084.0264">Dr. Omar</text><ellipse cx="722" cy="1097.3281" fill="#FEFECE" filter="url(#fadljrxzxzd82)" rx="8" ry="8" style="stroke:#A80036;stroke-width:2.0;"/><path d="M722,1105.3281 L722,1132.3281 M709,1113.3281 L735,1113.3281 M722,1132.3281 L709,1147.3281 M722,1132.3281 L735,1147.3281 " fill="none" filter="url(#fadljrxzxzd82)" style="stroke:#A80036;stroke-width:2.0;"/><path d="M10,140.25 L157,140.25 L157,147.25 L147,157.25 L10,157.25 L10,140.25 " fill="#EEEEEE" style="stroke:#000000;stroke-width:1.0;"/><rect fill="none" height="149.9297" style="stroke:#000000;stroke-width:2.0;" width="422.5" x="10" y="140.25"/><text fill="#000000" font-family="sans-serif" font-size="13" font-weight="bold" lengthAdjust="spacing" textLength="102" x="25" y="153.3169">Initial Contact</text><polygon fill="#A80036" points="205.5,189.6484,215.5,193.6484,205.5,197.6484,209.5,193.6484" style="stroke:#A80036;stroke-width:1.0;"/><line style="stroke:#A80036;stroke-width:1.0;" x1="57.5" x2="211.5" y1="193.6484" y2="193.6484"/><text fill="#000000" font-family="sans-serif" font-size="13" lengthAdjust="spacing" textLength="136" x="64.5" y="173.4497">Goes to appointment</text><text fill="#000000" font-family="sans-serif" font-size="13" lengthAdjust="spacing" textLength="0" x="68.5" y="188.5825"/><polygon fill="#A80036" points="228.5,233.9141,218.5,237.9141,228.5,241.9141,224.5,237.9141" style="stroke:#A80036;stroke-width:1.0;"/><line style="stroke:#A80036;stroke-width:1.0;" x1="222.5" x2="395.5" y1="237.9141" y2="237.9141"/><text fill="#000000" font-family="sans-serif" font-size="13" lengthAdjust="spacing" textLength="155" x="234.5" y="217.7153">Get Patient's Medication</text><a href="ExampleScenario-example-1-scenario-resources.html#EB" target="_top" title="ExampleScenario-example-1-scenario-resources.html#EB" xlink:actuate="onRequest" xlink:href="ExampleScenario-example-1-scenario-resources.html#EB" xlink:show="new" xlink:title="ExampleScenario-example-1-scenario-resources.html#EB" xlink:type="simple"><text fill="#0000FF" font-family="sans-serif" font-size="13" lengthAdjust="spacing" text-decoration="underline" textLength="89" x="234.5" y="232.8481">Empty Bundle</text></a><polygon fill="#A80036" points="384.5,278.1797,394.5,282.1797,384.5,286.1797,388.5,282.1797" style="stroke:#A80036;stroke-width:1.0;"/><line style="stroke:#A80036;stroke-width:1.0;" x1="217.5" x2="390.5" y1="282.1797" y2="282.1797"/><text fill="#000000" font-family="sans-serif" font-size="13" lengthAdjust="spacing" textLength="151" x="224.5" y="261.981">Create new prescription</text><a href="ExampleScenario-example-1-scenario-resources.html#1-prescription" target="_top" title="ExampleScenario-example-1-scenario-resources.html#1-prescription" xlink:actuate="onRequest" xlink:href="ExampleScenario-example-1-scenario-resources.html#1-prescription" xlink:show="new" xlink:title="ExampleScenario-example-1-scenario-resources.html#1-prescription" xlink:type="simple"><text fill="#0000FF" font-family="sans-serif" font-size="13" lengthAdjust="spacing" text-decoration="underline" textLength="117" x="224.5" y="277.1138">Amlor Prescription</text></a><path d="M360.5,304.1797 L625.5,304.1797 L625.5,311.1797 L615.5,321.1797 L360.5,321.1797 L360.5,304.1797 " fill="#EEEEEE" style="stroke:#000000;stroke-width:1.0;"/><rect fill="none" height="188.9297" style="stroke:#000000;stroke-width:2.0;" width="282" x="360.5" y="304.1797"/><text fill="#000000" font-family="sans-serif" font-size="13" font-weight="bold" lengthAdjust="spacing" textLength="220" x="375.5" y="317.2466">Treatment resources Creation</text><line style="stroke:#A80036;stroke-width:1.0;" x1="396.5" x2="438.5" y1="357.5781" y2="357.5781"/><line style="stroke:#A80036;stroke-width:1.0;" x1="438.5" x2="438.5" y1="357.5781" y2="370.5781"/><line style="stroke:#A80036;stroke-width:1.0;" x1="397.5" x2="438.5" y1="370.5781" y2="370.5781"/><polygon fill="#A80036" points="407.5,366.5781,397.5,370.5781,407.5,374.5781,403.5,370.5781" style="stroke:#A80036;stroke-width:1.0;"/><text fill="#000000" font-family="sans-serif" font-size="13" lengthAdjust="spacing" textLength="141" x="403.5" y="337.3794">Create new treatment</text><a href="ExampleScenario-example-1-scenario-resources.html#1-treatment" target="_top" title="ExampleScenario-example-1-scenario-resources.html#1-treatment" xlink:actuate="onRequest" xlink:href="ExampleScenario-example-1-scenario-resources.html#1-treatment" xlink:show="new" xlink:title="ExampleScenario-example-1-scenario-resources.html#1-treatment" xlink:type="simple"><text fill="#0000FF" font-family="sans-serif" font-size="13" lengthAdjust="spacing" text-decoration="underline" textLength="98" x="403.5" y="352.5122">New Treatment</text></a><line style="stroke:#A80036;stroke-width:1.0;" x1="396.5" x2="438.5" y1="414.8438" y2="414.8438"/><line style="stroke:#A80036;stroke-width:1.0;" x1="438.5" x2="438.5" y1="414.8438" y2="427.8438"/><line style="stroke:#A80036;stroke-width:1.0;" x1="397.5" x2="438.5" y1="427.8438" y2="427.8438"/><polygon fill="#A80036" points="407.5,423.8438,397.5,427.8438,407.5,431.8438,403.5,427.8438" style="stroke:#A80036;stroke-width:1.0;"/><text fill="#000000" font-family="sans-serif" font-size="13" lengthAdjust="spacing" textLength="171" x="403.5" y="394.645">Create new treatment Line</text><a href="ExampleScenario-example-1-scenario-resources.html#1-treatmentLine" target="_top" title="ExampleScenario-example-1-scenario-resources.html#1-treatmentLine" xlink:actuate="onRequest" xlink:href="ExampleScenario-example-1-scenario-resources.html#1-treatmentLine" xlink:show="new" xlink:title="ExampleScenario-example-1-scenario-resources.html#1-treatmentLine" xlink:type="simple"><text fill="#0000FF" font-family="sans-serif" font-size="13" lengthAdjust="spacing" text-decoration="underline" textLength="128" x="403.5" y="409.7778">New Treatment Line</text></a><line style="stroke:#A80036;stroke-width:1.0;" x1="396.5" x2="438.5" y1="472.1094" y2="472.1094"/><line style="stroke:#A80036;stroke-width:1.0;" x1="438.5" x2="438.5" y1="472.1094" y2="485.1094"/><line style="stroke:#A80036;stroke-width:1.0;" x1="397.5" x2="438.5" y1="485.1094" y2="485.1094"/><polygon fill="#A80036" points="407.5,481.1094,397.5,485.1094,407.5,489.1094,403.5,485.1094" style="stroke:#A80036;stroke-width:1.0;"/><text fill="#000000" font-family="sans-serif" font-size="13" lengthAdjust="spacing" textLength="107" x="403.5" y="451.9106">Resource Linking</text><a href="ExampleScenario-example-1-scenario-resources.html#1-1-provenance" target="_top" title="ExampleScenario-example-1-scenario-resources.html#1-1-provenance" xlink:actuate="onRequest" xlink:href="ExampleScenario-example-1-scenario-resources.html#1-1-provenance" xlink:show="new" xlink:title="ExampleScenario-example-1-scenario-resources.html#1-1-provenance" xlink:type="simple"><text fill="#0000FF" font-family="sans-serif" font-size="13" lengthAdjust="spacing" text-decoration="underline" textLength="227" x="403.5" y="467.0435">Link Prescription and treatmentLine</text></a><path d="M360.5,507.1094 L473.5,507.1094 L473.5,514.1094 L463.5,524.1094 L360.5,524.1094 L360.5,507.1094 " fill="#EEEEEE" style="stroke:#000000;stroke-width:1.0;"/><rect fill="none" height="105.6641" style="stroke:#000000;stroke-width:2.0;" width="328" x="360.5" y="507.1094"/><text fill="#000000" font-family="sans-serif" font-size="13" font-weight="bold" lengthAdjust="spacing" textLength="68" x="375.5" y="520.1763">Dispense</text><polygon fill="#A80036" points="625.5,556.5078,635.5,560.5078,625.5,564.5078,629.5,560.5078" style="stroke:#A80036;stroke-width:1.0;"/><line style="stroke:#A80036;stroke-width:1.0;" x1="396.5" x2="631.5" y1="560.5078" y2="560.5078"/><text fill="#000000" font-family="sans-serif" font-size="13" lengthAdjust="spacing" textLength="168" x="403.5" y="540.3091">Get patient's Prescriptions</text><a href="ExampleScenario-example-1-scenario-resources.html#EB" target="_top" title="ExampleScenario-example-1-scenario-resources.html#EB" xlink:actuate="onRequest" xlink:href="ExampleScenario-example-1-scenario-resources.html#EB" xlink:show="new" xlink:title="ExampleScenario-example-1-scenario-resources.html#EB" xlink:type="simple"><text fill="#0000FF" font-family="sans-serif" font-size="13" lengthAdjust="spacing" text-decoration="underline" textLength="89" x="403.5" y="555.4419">Empty Bundle</text></a><polygon fill="#A80036" points="407.5,600.7734,397.5,604.7734,407.5,608.7734,403.5,604.7734" style="stroke:#A80036;stroke-width:1.0;"/><line style="stroke:#A80036;stroke-width:1.0;" x1="401.5" x2="636.5" y1="604.7734" y2="604.7734"/><text fill="#000000" font-family="sans-serif" font-size="13" lengthAdjust="spacing" textLength="133" x="413.5" y="584.5747">Create new dispense</text><a href="ExampleScenario-example-1-scenario-resources.html#1-dispense" target="_top" title="ExampleScenario-example-1-scenario-resources.html#1-dispense" xlink:actuate="onRequest" xlink:href="ExampleScenario-example-1-scenario-resources.html#1-dispense" xlink:show="new" xlink:title="ExampleScenario-example-1-scenario-resources.html#1-dispense" xlink:type="simple"><text fill="#0000FF" font-family="sans-serif" font-size="13" lengthAdjust="spacing" text-decoration="underline" textLength="176" x="413.5" y="599.7075">Amlodipin Sandoz dispense</text></a><path d="M360.5,626.7734 L536.5,626.7734 L536.5,633.7734 L526.5,643.7734 L360.5,643.7734 L360.5,626.7734 " fill="#EEEEEE" style="stroke:#000000;stroke-width:1.0;"/><rect fill="none" height="74.3984" style="stroke:#000000;stroke-width:2.0;" width="266" x="360.5" y="626.7734"/><text fill="#000000" font-family="sans-serif" font-size="13" font-weight="bold" lengthAdjust="spacing" textLength="131" x="375.5" y="639.8403">Resource Linkage</text><line style="stroke:#A80036;stroke-width:1.0;" x1="396.5" x2="438.5" y1="680.1719" y2="680.1719"/><line style="stroke:#A80036;stroke-width:1.0;" x1="438.5" x2="438.5" y1="680.1719" y2="693.1719"/><line style="stroke:#A80036;stroke-width:1.0;" x1="397.5" x2="438.5" y1="693.1719" y2="693.1719"/><polygon fill="#A80036" points="407.5,689.1719,397.5,693.1719,407.5,697.1719,403.5,693.1719" style="stroke:#A80036;stroke-width:1.0;"/><text fill="#000000" font-family="sans-serif" font-size="13" lengthAdjust="spacing" textLength="107" x="403.5" y="659.9731">Resource Linking</text><a href="ExampleScenario-example-1-scenario-resources.html#1-2-provenance" target="_top" title="ExampleScenario-example-1-scenario-resources.html#1-2-provenance" xlink:actuate="onRequest" xlink:href="ExampleScenario-example-1-scenario-resources.html#1-2-provenance" xlink:show="new" xlink:title="ExampleScenario-example-1-scenario-resources.html#1-2-provenance" xlink:type="simple"><text fill="#0000FF" font-family="sans-serif" font-size="13" lengthAdjust="spacing" text-decoration="underline" textLength="211" x="403.5" y="675.106">Link Dispense and treatmentLine</text></a><path d="M360.5,715.1719 L638.5,715.1719 L638.5,722.1719 L628.5,732.1719 L360.5,732.1719 L360.5,715.1719 " fill="#EEEEEE" style="stroke:#000000;stroke-width:1.0;"/><rect fill="none" height="162.9297" style="stroke:#000000;stroke-width:2.0;" width="405" x="360.5" y="715.1719"/><text fill="#000000" font-family="sans-serif" font-size="13" font-weight="bold" lengthAdjust="spacing" textLength="233" x="375.5" y="728.2388">Vizualization Data for physician</text><polygon fill="#A80036" points="407.5,764.5703,397.5,768.5703,407.5,772.5703,403.5,768.5703" style="stroke:#A80036;stroke-width:1.0;"/><line style="stroke:#A80036;stroke-width:1.0;" x1="401.5" x2="721" y1="768.5703" y2="768.5703"/><text fill="#000000" font-family="sans-serif" font-size="13" lengthAdjust="spacing" textLength="143" x="413.5" y="748.3716">Requiring Visualization</text><text fill="#000000" font-family="sans-serif" font-size="13" lengthAdjust="spacing" textLength="0" x="417.5" y="763.5044"/><line style="stroke:#A80036;stroke-width:1.0;" x1="396.5" x2="438.5" y1="812.8359" y2="812.8359"/><line style="stroke:#A80036;stroke-width:1.0;" x1="438.5" x2="438.5" y1="812.8359" y2="825.8359"/><line style="stroke:#A80036;stroke-width:1.0;" x1="397.5" x2="438.5" y1="825.8359" y2="825.8359"/><polygon fill="#A80036" points="407.5,821.8359,397.5,825.8359,407.5,829.8359,403.5,825.8359" style="stroke:#A80036;stroke-width:1.0;"/><text fill="#000000" font-family="sans-serif" font-size="13" lengthAdjust="spacing" textLength="138" x="403.5" y="792.6372">Creating Visualization</text><text fill="#000000" font-family="sans-serif" font-size="13" lengthAdjust="spacing" textLength="0" x="407.5" y="807.77"/><polygon fill="#A80036" points="710,866.1016,720,870.1016,710,874.1016,714,870.1016" style="stroke:#A80036;stroke-width:1.0;"/><line style="stroke:#A80036;stroke-width:1.0;" x1="396.5" x2="716" y1="870.1016" y2="870.1016"/><text fill="#000000" font-family="sans-serif" font-size="13" lengthAdjust="spacing" textLength="149" x="403.5" y="849.9028">Displaying Visualization</text><a href="ExampleScenario-example-1-scenario-resources.html#1-summary-view" target="_top" title="ExampleScenario-example-1-scenario-resources.html#1-summary-view" xlink:actuate="onRequest" xlink:href="ExampleScenario-example-1-scenario-resources.html#1-summary-view" xlink:show="new" xlink:title="ExampleScenario-example-1-scenario-resources.html#1-summary-view" xlink:type="simple"><text fill="#0000FF" font-family="sans-serif" font-size="13" lengthAdjust="spacing" text-decoration="underline" textLength="190" x="403.5" y="865.0356">Summary view for a Physician</text></a><path d="M10,892.1016 L486,892.1016 L486,899.1016 L476,909.1016 L10,909.1016 L10,892.1016 " fill="#EEEEEE" style="stroke:#000000;stroke-width:1.0;"/><rect fill="none" height="162.9297" style="stroke:#000000;stroke-width:2.0;" width="543.5" x="10" y="892.1016"/><text fill="#000000" font-family="sans-serif" font-size="13" font-weight="bold" lengthAdjust="spacing" textLength="431" x="25" y="905.1685">Vizualization Data for patient (scheduled Administrations)</text><polygon fill="#A80036" points="384.5,941.5,394.5,945.5,384.5,949.5,388.5,945.5" style="stroke:#A80036;stroke-width:1.0;"/><line style="stroke:#A80036;stroke-width:1.0;" x1="57.5" x2="390.5" y1="945.5" y2="945.5"/><text fill="#000000" font-family="sans-serif" font-size="13" lengthAdjust="spacing" textLength="143" x="64.5" y="925.3013">Requiring Visualization</text><text fill="#000000" font-family="sans-serif" font-size="13" lengthAdjust="spacing" textLength="0" x="68.5" y="940.4341"/><line style="stroke:#A80036;stroke-width:1.0;" x1="396.5" x2="438.5" y1="989.7656" y2="989.7656"/><line style="stroke:#A80036;stroke-width:1.0;" x1="438.5" x2="438.5" y1="989.7656" y2="1002.7656"/><line style="stroke:#A80036;stroke-width:1.0;" x1="397.5" x2="438.5" y1="1002.7656" y2="1002.7656"/><polygon fill="#A80036" points="407.5,998.7656,397.5,1002.7656,407.5,1006.7656,403.5,1002.7656" style="stroke:#A80036;stroke-width:1.0;"/><text fill="#000000" font-family="sans-serif" font-size="13" lengthAdjust="spacing" textLength="138" x="403.5" y="969.5669">Creating Visualization</text><text fill="#000000" font-family="sans-serif" font-size="13" lengthAdjust="spacing" textLength="0" x="407.5" y="984.6997"/><polygon fill="#A80036" points="68.5,1043.0313,58.5,1047.0313,68.5,1051.0313,64.5,1047.0313" style="stroke:#A80036;stroke-width:1.0;"/><line style="stroke:#A80036;stroke-width:1.0;" x1="62.5" x2="395.5" y1="1047.0313" y2="1047.0313"/><text fill="#000000" font-family="sans-serif" font-size="13" lengthAdjust="spacing" textLength="149" x="74.5" y="1026.8325">Displaying Visualization</text><a href="ExampleScenario-example-1-scenario-resources.html#1-scheduled-view" target="_top" title="ExampleScenario-example-1-scenario-resources.html#1-scheduled-view" xlink:actuate="onRequest" xlink:href="ExampleScenario-example-1-scenario-resources.html#1-scheduled-view" xlink:show="new" xlink:title="ExampleScenario-example-1-scenario-resources.html#1-scheduled-view" xlink:type="simple"><text fill="#0000FF" font-family="sans-serif" font-size="13" lengthAdjust="spacing" text-decoration="underline" textLength="284" x="74.5" y="1041.9653">Scheduled Administrations view for a Patient</text></a><!--MD5=[76066fbf436489d182a396d40fd53370]
@startuml


Title Change Branded Prescription

actor "Pia Peters" as PATIENT
actor "Dr. Durant" as GP
participant "Vault" as VAULT
actor "Pharmacist" as PHARM
actor "Dr. Omar" as GP2

    
    
    
    
    
group Initial Contact

PATIENT -> GP : Goes to appointment\n
VAULT -> GP : Get Patient's Medication\n[[ExampleScenario-example-1-scenario-resources.html#EB Empty Bundle]]
GP -> VAULT : Create new prescription\n[[ExampleScenario-example-1-scenario-resources.html#1-prescription Amlor Prescription]]
end
    
group Treatment resources Creation

VAULT -> VAULT : Create new treatment\n[[ExampleScenario-example-1-scenario-resources.html#1-treatment New Treatment]]
VAULT -> VAULT : Create new treatment Line\n[[ExampleScenario-example-1-scenario-resources.html#1-treatmentLine New Treatment Line]]
VAULT -> VAULT : Resource Linking\n[[ExampleScenario-example-1-scenario-resources.html#1-1-provenance Link Prescription and treatmentLine]]
end
    
group Dispense

VAULT -> PHARM : Get patient's Prescriptions\n[[ExampleScenario-example-1-scenario-resources.html#EB Empty Bundle]]
PHARM -> VAULT : Create new dispense\n[[ExampleScenario-example-1-scenario-resources.html#1-dispense Amlodipin Sandoz dispense]]
end
    
group Resource Linkage

VAULT -> VAULT : Resource Linking\n[[ExampleScenario-example-1-scenario-resources.html#1-2-provenance Link Dispense and treatmentLine]]
end
    
group Vizualization Data for physician

GP2 -> VAULT : Requiring Visualization\n
VAULT -> VAULT : Creating Visualization\n
VAULT -> GP2 : Displaying Visualization\n[[ExampleScenario-example-1-scenario-resources.html#1-summary-view Summary view for a Physician]]
end
    
group Vizualization Data for patient (scheduled Administrations)

PATIENT -> VAULT : Requiring Visualization\n
VAULT -> VAULT : Creating Visualization\n
VAULT -> PATIENT : Displaying Visualization\n[[ExampleScenario-example-1-scenario-resources.html#1-scheduled-view Scheduled Administrations view for a Patient]]
end
  

@enduml

PlantUML version 1.2022.0(Tue Jan 11 16:16:42 UTC 2022)
(APACHE source distribution)
Java Runtime: OpenJDK Runtime Environment
JVM: OpenJDK 64-Bit Server VM
Default Encoding: UTF-8
Language: en
Country: null
--></g></svg>